<?xml version="1.0" encoding="UTF-8" standalone="no"?>
<!DOCTYPE svg PUBLIC "-//W3C//DTD SVG 1.1//EN" "http://www.w3.org/Graphics/SVG/1.1/DTD/svg11.dtd">

<!-- Created with Vectornator (http://vectornator.io/) -->
<svg height="100%" stroke-miterlimit="10" style="fill-rule:nonzero;clip-rule:evenodd;stroke-linecap:round;stroke-linejoin:round;" version="1.1" viewBox="0 0 1024 768" width="100%" xml:space="preserve" xmlns="http://www.w3.org/2000/svg" xmlns:vectornator="http://vectornator.io" xmlns:xlink="http://www.w3.org/1999/xlink">
<metadata>
<vectornator:setting key="IsTimeLapseWatermarkDisabled" value="false"/>
<vectornator:setting key="UndoHistoryDisabled" value="true"/>
<vectornator:setting key="VNDimensionsVisible" value="true"/>
<vectornator:setting key="VNSnapToGuides" value="true"/>
<vectornator:setting key="WDCMYKEnabledKey" value="false"/>
<vectornator:setting key="WDDisplayWhiteBackground" value="false"/>
<vectornator:setting key="WDDynamicGuides" value="false"/>
<vectornator:setting key="WDGuidesVisible" value="true"/>
<vectornator:setting key="WDIsolateActiveLayer" value="false"/>
<vectornator:setting key="WDOutlineMode" value="false"/>
<vectornator:setting key="WDRulersVisible" value="true"/>
<vectornator:setting key="WDSnapToEdges" value="false"/>
<vectornator:setting key="WDSnapToGrid" value="false"/>
<vectornator:setting key="WDSnapToPoints" value="false"/>
<vectornator:setting key="WDUnits" value="Points"/>
</metadata>
<defs>
<linearGradient gradientTransform="matrix(0.879083 0 0 0.272213 -6.86955 160.222)" gradientUnits="userSpaceOnUse" id="LinearGradient" x1="-141.162" x2="1102.01" y1="371.826" y2="403.279">
<stop offset="1" stop-color="#000000"/>
<stop offset="1" stop-color="#ffa1a7"/>
</linearGradient>
<path d="M560.805 251.934L1174.95 251.934L1174.95 251.934L1174.95 452.822L1174.95 452.822L560.805 452.822L560.805 452.822L560.805 251.934L560.805 251.934Z" fill-rule="evenodd" id="Fill"/>
<path d="M560.805 251.934L1174.95 251.934L1174.95 251.934L1174.95 452.822L1174.95 452.822L560.805 452.822L560.805 452.822L560.805 251.934L560.805 251.934Z" fill-rule="evenodd" id="Fill_2"/>
<path d="M560.805 251.934L1174.95 251.934L1174.95 251.934L1174.95 452.822L1174.95 452.822L560.805 452.822L560.805 452.822L560.805 251.934L560.805 251.934Z" fill-rule="evenodd" id="Fill_3"/>
<path d="M560.805 251.934L1174.95 251.934L1174.95 251.934L1174.95 452.822L1174.95 452.822L560.805 452.822L560.805 452.822L560.805 251.934L560.805 251.934Z" fill-rule="evenodd" id="Fill_4"/>
<path d="M560.805 251.934L1174.95 251.934L1174.95 251.934L1174.95 452.822L1174.95 452.822L560.805 452.822L560.805 452.822L560.805 251.934L560.805 251.934Z" fill-rule="evenodd" id="Fill_5"/>
<path d="M66.4896 249.469L498.316 249.469L498.316 249.469L498.316 395.345L498.316 395.345L66.4896 395.345L66.4896 395.345L66.4896 249.469L66.4896 249.469Z" fill-rule="evenodd" id="Fill_6"/>
<path d="M66.4896 249.469L498.316 249.469L498.316 249.469L498.316 395.345L498.316 395.345L66.4896 395.345L66.4896 395.345L66.4896 249.469L66.4896 249.469Z" fill-rule="evenodd" id="Fill_7"/>
<path d="M66.4896 249.469L498.316 249.469L498.316 249.469L498.316 395.345L498.316 395.345L66.4896 395.345L66.4896 395.345L66.4896 249.469L66.4896 249.469Z" fill-rule="evenodd" id="Fill_8"/>
<path d="M66.4896 249.469L498.316 249.469L498.316 249.469L498.316 395.345L498.316 395.345L66.4896 395.345L66.4896 395.345L66.4896 249.469L66.4896 249.469Z" fill-rule="evenodd" id="Fill_9"/>
<path d="M66.4896 249.469L498.316 249.469L498.316 249.469L498.316 395.345L498.316 395.345L66.4896 395.345L66.4896 395.345L66.4896 249.469L66.4896 249.469Z" fill-rule="evenodd" id="Fill_10"/>
<path d="M66.4896 249.469L498.316 249.469L498.316 249.469L498.316 395.345L498.316 395.345L66.4896 395.345L66.4896 395.345L66.4896 249.469L66.4896 249.469Z" fill-rule="evenodd" id="Fill_11"/>
<path d="M66.4896 249.469L498.316 249.469L498.316 249.469L498.316 395.345L498.316 395.345L66.4896 395.345L66.4896 395.345L66.4896 249.469L66.4896 249.469Z" fill-rule="evenodd" id="Fill_12"/>
<path d="M409.427 102.639L648.722 102.639L648.722 102.639L648.722 380.025L648.722 380.025L409.427 380.025L409.427 380.025L409.427 102.639L409.427 102.639Z" fill-rule="evenodd" id="Fill_13"/>
<linearGradient gradientTransform="matrix(1 0 0 1 149.286 -4.10788)" gradientUnits="userSpaceOnUse" id="LinearGradient_2" x1="258.398" x2="357.411" y1="171.593" y2="171.593">
<stop offset="0.277543" stop-color="#003af2"/>
<stop offset="0.992343" stop-color="#00f2c5"/>
</linearGradient>
</defs>
<clipPath id="ArtboardFrame">
<rect height="768" width="1024" x="0" y="0"/>
</clipPath>
<g clip-path="url(#ArtboardFrame)" id="Layer-1" vectornator:layerName="Layer 1">
<path d="M-3.95874 159.082L901.905 159.082L901.905 376.951L-3.95874 376.951L-3.95874 159.082Z" fill="url(#LinearGradient)" fill-rule="evenodd" opacity="1" stroke="none"/>
</g>
<g clip-path="url(#ArtboardFrame)" id="Layer-4" vectornator:layerName="Layer 4">
<g opacity="1">
<g opacity="1" vectornator:mask="#Fill">
<clipPath id="ClipPath">
<use overflow="#visible" xlink:href="#Fill"/>
</clipPath>
<g clip-path="url(#ClipPath)">
<path d="M593.164 319.022L593.164 329.422L586.573 329.666C579.997 329.894 575.505 328.755 573.096 326.248C571.533 324.653 570.752 322.195 570.752 318.875L570.752 286.111L563.33 286.111L563.33 276.199L570.752 276.199L570.752 261.355L584.522 261.355L584.522 276.199L593.164 276.199L593.164 286.111L584.522 286.111L584.522 314.236C584.522 316.417 584.798 317.776 585.352 318.313C585.905 318.851 587.598 319.119 590.43 319.119C590.853 319.119 591.301 319.111 591.773 319.095C592.245 319.078 592.709 319.054 593.164 319.022Z" fill="#00f2c5" fill-rule="evenodd" opacity="1" stroke="none"/>
</g>
</g>
<g opacity="1" vectornator:mask="#Fill_2">
<clipPath id="ClipPath_2">
<use overflow="#visible" xlink:href="#Fill_2"/>
</clipPath>
<g clip-path="url(#ClipPath_2)">
<path d="M628.858 288.553C623.259 288.553 619.499 290.376 617.578 294.022C616.504 296.072 615.967 299.23 615.967 303.494L615.967 328.934L601.953 328.934L601.953 275.711L615.235 275.711L615.235 284.988C617.383 281.44 619.255 279.015 620.85 277.713C623.454 275.532 626.839 274.441 631.006 274.441C631.267 274.441 631.486 274.45 631.665 274.466C631.844 274.482 632.243 274.507 632.862 274.539L632.862 288.797C631.983 288.699 631.201 288.634 630.518 288.602C629.834 288.569 629.281 288.553 628.858 288.553Z" fill="#00f2c5" fill-rule="evenodd" opacity="1" stroke="none"/>
</g>
</g>
<g opacity="1" vectornator:mask="#Fill_3">
<clipPath id="ClipPath_3">
<use overflow="#visible" xlink:href="#Fill_3"/>
</clipPath>
<g clip-path="url(#ClipPath_3)">
<path d="M686.573 313.309C686.214 316.466 684.571 319.673 681.641 322.928C677.084 328.104 670.703 330.691 662.5 330.691C655.729 330.691 649.756 328.51 644.58 324.148C639.405 319.786 636.817 312.69 636.817 302.859C636.817 293.647 639.152 286.583 643.824 281.668C648.495 276.753 654.558 274.295 662.012 274.295C666.439 274.295 670.427 275.125 673.975 276.785C677.523 278.445 680.453 281.066 682.764 284.647C684.847 287.804 686.198 291.466 686.817 295.633C687.175 298.074 687.321 301.59 687.256 306.18L650.83 306.18C651.026 311.518 652.702 315.262 655.86 317.41C657.78 318.745 660.091 319.412 662.793 319.412C665.658 319.412 667.985 318.598 669.776 316.971C670.752 316.092 671.615 314.871 672.364 313.309L686.573 313.309ZM672.803 297C672.575 293.322 671.46 290.53 669.458 288.626C667.456 286.722 664.974 285.77 662.012 285.77C658.789 285.77 656.291 286.779 654.517 288.797C652.743 290.815 651.628 293.549 651.172 297L672.803 297Z" fill="#00f2c5" fill-rule="evenodd" opacity="1" stroke="none"/>
</g>
</g>
<g opacity="1" vectornator:mask="#Fill_4">
<clipPath id="ClipPath_4">
<use overflow="#visible" xlink:href="#Fill_4"/>
</clipPath>
<g clip-path="url(#ClipPath_4)">
<path d="M726.514 290.359C725.342 287.788 723.047 286.502 719.629 286.502C715.658 286.502 712.989 287.788 711.621 290.359C710.873 291.824 710.498 294.005 710.498 296.902L710.498 328.934L696.387 328.934L696.387 275.809L709.912 275.809L709.912 283.572C711.638 280.805 713.265 278.836 714.795 277.664C717.497 275.581 720.996 274.539 725.293 274.539C729.362 274.539 732.65 275.434 735.157 277.225C737.175 278.885 738.705 281.017 739.746 283.621C741.569 280.496 743.832 278.201 746.533 276.736C749.398 275.272 752.588 274.539 756.104 274.539C758.448 274.539 760.759 274.995 763.037 275.906C765.316 276.818 767.383 278.413 769.239 280.691C770.736 282.547 771.745 284.826 772.266 287.527C772.591 289.318 772.754 291.938 772.754 295.389L772.657 328.934L758.399 328.934L758.399 295.047C758.399 293.029 758.073 291.369 757.422 290.066C756.185 287.592 753.907 286.355 750.586 286.355C746.745 286.355 744.092 287.951 742.627 291.141C741.879 292.833 741.504 294.868 741.504 297.244L741.504 328.934L727.491 328.934L727.491 297.244C727.491 294.087 727.165 291.792 726.514 290.359Z" fill="#00f2c5" fill-rule="evenodd" opacity="1" stroke="none"/>
</g>
</g>
<g opacity="1" vectornator:mask="#Fill_5">
<clipPath id="ClipPath_5">
<use overflow="#visible" xlink:href="#Fill_5"/>
</clipPath>
<g clip-path="url(#ClipPath_5)">
<path d="M831.104 313.309C830.746 316.466 829.102 319.673 826.172 322.928C821.615 328.104 815.235 330.691 807.032 330.691C800.261 330.691 794.287 328.51 789.112 324.148C783.936 319.786 781.348 312.69 781.348 302.859C781.348 293.647 783.684 286.583 788.355 281.668C793.026 276.753 799.089 274.295 806.543 274.295C810.97 274.295 814.958 275.125 818.506 276.785C822.054 278.445 824.984 281.066 827.295 284.647C829.379 287.804 830.729 291.466 831.348 295.633C831.706 298.074 831.853 301.59 831.787 306.18L795.362 306.18C795.557 311.518 797.233 315.262 800.391 317.41C802.311 318.745 804.623 319.412 807.325 319.412C810.189 319.412 812.517 318.598 814.307 316.971C815.283 316.092 816.146 314.871 816.895 313.309L831.104 313.309ZM817.334 297C817.106 293.322 815.992 290.53 813.99 288.626C811.988 286.722 809.506 285.77 806.543 285.77C803.321 285.77 800.822 286.779 799.048 288.797C797.274 290.815 796.159 293.549 795.703 297L817.334 297Z" fill="#00f2c5" fill-rule="evenodd" opacity="1" stroke="none"/>
</g>
</g>
</g>
</g>
<g id="Layer-2" vectornator:layerName="Layer 2">
<g opacity="1">
<g opacity="1" vectornator:mask="#Fill_6">
<clipPath id="ClipPath_6">
<use overflow="#visible" xlink:href="#Fill_6"/>
</clipPath>
<g clip-path="url(#ClipPath_6)">
<path d="M106.173 300.59L90.89 300.59L90.89 326.469L75.9486 326.469L75.9486 254.496L107.296 254.496C114.523 254.496 120.285 256.352 124.581 260.063C128.878 263.774 131.027 269.519 131.027 277.299C131.027 285.795 128.878 291.801 124.581 295.317C120.285 298.832 114.148 300.59 106.173 300.59ZM113.204 285.6C115.158 283.874 116.134 281.14 116.134 277.397C116.134 273.653 115.149 270.984 113.18 269.389C111.211 267.794 108.452 266.996 104.904 266.996L90.89 266.996L90.89 288.188L104.904 288.188C108.452 288.188 111.219 287.325 113.204 285.6Z" fill="#003bf9" fill-rule="evenodd" opacity="1" stroke="none"/>
</g>
</g>
<g opacity="1" vectornator:mask="#Fill_7">
<clipPath id="ClipPath_7">
<use overflow="#visible" xlink:href="#Fill_7"/>
</clipPath>
<g clip-path="url(#ClipPath_7)">
<path d="M167.941 286.088C162.342 286.088 158.582 287.911 156.662 291.557C155.587 293.608 155.05 296.765 155.05 301.029L155.05 326.469L141.037 326.469L141.037 273.246L154.318 273.246L154.318 282.524C156.466 278.975 158.338 276.55 159.933 275.248C162.537 273.067 165.923 271.977 170.089 271.977C170.35 271.977 170.569 271.985 170.748 272.001C170.927 272.017 171.326 272.042 171.945 272.074L171.945 286.332C171.066 286.235 170.285 286.169 169.601 286.137C168.917 286.104 168.364 286.088 167.941 286.088Z" fill="#003bf9" fill-rule="evenodd" opacity="1" stroke="none"/>
</g>
</g>
<g opacity="1" vectornator:mask="#Fill_8">
<clipPath id="ClipPath_8">
<use overflow="#visible" xlink:href="#Fill_8"/>
</clipPath>
<g clip-path="url(#ClipPath_8)">
<path d="M224.484 279.985C228.976 285.616 231.222 292.273 231.222 299.955C231.222 307.768 228.976 314.449 224.484 319.999C219.992 325.549 213.172 328.324 204.025 328.324C194.878 328.324 188.058 325.549 183.566 319.999C179.074 314.449 176.828 307.768 176.828 299.955C176.828 292.273 179.074 285.616 183.566 279.985C188.058 274.353 194.878 271.537 204.025 271.537C213.172 271.537 219.992 274.353 224.484 279.985ZM203.976 283.305C199.907 283.305 196.774 284.745 194.577 287.626C192.379 290.507 191.281 294.617 191.281 299.955C191.281 305.294 192.379 309.412 194.577 312.309C196.774 315.206 199.907 316.654 203.976 316.654C208.045 316.654 211.17 315.206 213.351 312.309C215.532 309.412 216.622 305.294 216.622 299.955C216.622 294.617 215.532 290.507 213.351 287.626C211.17 284.745 208.045 283.305 203.976 283.305Z" fill="#003bf9" fill-rule="evenodd" opacity="1" stroke="none"/>
</g>
</g>
<g opacity="1" vectornator:mask="#Fill_9">
<clipPath id="ClipPath_9">
<use overflow="#visible" xlink:href="#Fill_9"/>
</clipPath>
<g clip-path="url(#ClipPath_9)">
<path d="M241.818 273.49L255.734 273.49L255.734 332.182C255.734 337.553 254.676 341.524 252.56 344.096C250.444 346.667 246.294 347.953 240.109 347.953C239.686 347.953 239.059 347.937 238.229 347.904C237.399 347.872 236.365 347.839 235.128 347.807L235.128 336.674C235.91 336.739 236.463 336.78 236.788 336.796C237.114 336.812 237.407 336.82 237.667 336.82C239.035 336.82 240.068 336.487 240.768 335.819C241.468 335.152 241.818 333.858 241.818 331.938L241.818 273.49ZM241.818 254.057L255.734 254.057L255.734 266.899L241.818 266.899L241.818 254.057Z" fill="#003bf9" fill-rule="evenodd" opacity="1" stroke="none"/>
</g>
</g>
<g opacity="1" vectornator:mask="#Fill_10">
<clipPath id="ClipPath_10">
<use overflow="#visible" xlink:href="#Fill_10"/>
</clipPath>
<g clip-path="url(#ClipPath_10)">
<path d="M314.523 310.844C314.165 314.001 312.521 317.208 309.591 320.463C305.034 325.639 298.654 328.227 290.451 328.227C283.68 328.227 277.706 326.046 272.531 321.684C267.355 317.322 264.767 310.225 264.767 300.395C264.767 291.182 267.103 284.119 271.774 279.203C276.445 274.288 282.508 271.83 289.962 271.83C294.389 271.83 298.377 272.66 301.925 274.32C305.473 275.981 308.403 278.601 310.714 282.182C312.798 285.339 314.148 289.001 314.767 293.168C315.125 295.61 315.272 299.125 315.206 303.715L278.781 303.715C278.976 309.054 280.652 312.797 283.81 314.945C285.731 316.28 288.042 316.947 290.744 316.947C293.608 316.947 295.936 316.134 297.726 314.506C298.703 313.627 299.565 312.406 300.314 310.844L314.523 310.844ZM300.753 294.535C300.525 290.857 299.411 288.066 297.409 286.161C295.407 284.257 292.925 283.305 289.962 283.305C286.74 283.305 284.241 284.314 282.467 286.332C280.693 288.35 279.578 291.085 279.122 294.535L300.753 294.535Z" fill="#003bf9" fill-rule="evenodd" opacity="1" stroke="none"/>
</g>
</g>
<g opacity="1" vectornator:mask="#Fill_11">
<clipPath id="ClipPath_11">
<use overflow="#visible" xlink:href="#Fill_11"/>
</clipPath>
<g clip-path="url(#ClipPath_11)">
<path d="M370.626 292.338L356.369 292.338C356.108 290.352 355.441 288.562 354.367 286.967C352.804 284.818 350.379 283.744 347.091 283.744C342.404 283.744 339.197 286.072 337.472 290.727C336.561 293.201 336.105 296.488 336.105 300.59C336.105 304.496 336.561 307.637 337.472 310.014C339.132 314.441 342.257 316.654 346.847 316.654C350.102 316.654 352.413 315.776 353.781 314.018C355.148 312.26 355.978 309.981 356.271 307.182L370.48 307.182C370.154 311.414 368.624 315.417 365.89 319.193C361.528 325.281 355.066 328.324 346.505 328.324C337.944 328.324 331.645 325.785 327.609 320.707C323.572 315.629 321.554 309.037 321.554 300.932C321.554 291.785 323.784 284.672 328.244 279.594C332.703 274.516 338.856 271.977 346.701 271.977C353.374 271.977 358.834 273.474 363.082 276.469C367.33 279.464 369.845 284.753 370.626 292.338Z" fill="#003bf9" fill-rule="evenodd" opacity="1" stroke="none"/>
</g>
</g>
<g opacity="1" vectornator:mask="#Fill_12">
<clipPath id="ClipPath_12">
<use overflow="#visible" xlink:href="#Fill_12"/>
</clipPath>
<g clip-path="url(#ClipPath_12)">
<path d="M404.562 316.557L404.562 326.957L397.97 327.201C391.395 327.429 386.902 326.29 384.494 323.783C382.931 322.188 382.15 319.731 382.15 316.41L382.15 283.647L374.728 283.647L374.728 273.735L382.15 273.735L382.15 258.891L395.919 258.891L395.919 273.735L404.562 273.735L404.562 283.647L395.919 283.647L395.919 311.772C395.919 313.953 396.196 315.312 396.749 315.849C397.303 316.386 398.995 316.654 401.828 316.654C402.251 316.654 402.698 316.646 403.17 316.63C403.642 316.614 404.106 316.589 404.562 316.557Z" fill="#003bf9" fill-rule="evenodd" opacity="1" stroke="none"/>
</g>
</g>
</g>
</g>
<g id="Layer-3" vectornator:layerName="Layer 3">
<g opacity="1" vectornator:mask="#Fill_13">
<clipPath id="ClipPath_13">
<use overflow="#visible" xlink:href="#Fill_13"/>
</clipPath>
<g clip-path="url(#ClipPath_13)">
<path d="M480.849 263.358L474.795 249.1L471.084 239.92C469.782 236.73 468.187 233.215 466.298 229.373C463.825 224.1 462.36 220.975 461.904 219.998C458.323 211.665 454.775 207.498 451.259 207.498C444.879 207.498 439.476 213.651 435.048 225.955C432.965 225.435 431.923 224.067 431.923 221.854C431.923 215.669 434.918 209.028 440.908 201.932C446.897 194.836 452.562 191.287 457.9 191.287C462.132 191.287 465.94 193.729 469.326 198.612C472.711 203.494 477.627 213.651 484.072 229.08L491.787 247.635L495.107 241.776L501.357 230.741C516.331 204.504 531.338 191.385 546.377 191.385C551.39 191.385 556.11 192.427 560.537 194.51L546.474 208.573C543.74 207.01 541.364 206.229 539.345 206.229C533.421 206.229 527.529 209.484 521.67 215.994C515.81 222.505 508.128 234.321 498.623 251.444L495.595 256.912L503.408 275.662L507.802 285.623L512.002 295.487C517.861 309.354 523.297 316.287 528.31 316.287C535.602 316.287 540.908 310.688 544.228 299.491C546.637 300.532 547.841 301.932 547.841 303.69C547.841 306.554 545.888 311.014 541.982 317.069C536.123 326.118 529.482 330.643 522.06 330.643C516.722 330.643 511.953 327.713 507.754 321.854C503.554 315.994 497.646 303.983 490.029 285.819L484.658 272.83L482.509 277.03C463.825 312.772 444.879 330.643 425.673 330.643C421.572 330.643 417.112 329.536 412.295 327.323L426.65 313.358C429.189 314.725 431.923 315.409 434.853 315.409C443.382 315.409 452.236 308.898 461.416 295.877C469.098 285.07 474.925 275.532 478.896 267.264L480.849 263.358Z" fill="url(#LinearGradient_2)" fill-rule="evenodd" opacity="1" stroke="none"/>
</g>
</g>
</g>
</svg>
